<mxfile host="app.diagrams.net" modified="2024-07-21T19:36:56.572Z" agent="Mozilla/5.0 (Macintosh; Intel Mac OS X 10_15_7) AppleWebKit/537.36 (KHTML, like Gecko) Chrome/126.0.0.0 Safari/537.36" version="24.7.1" etag="_pKyWjCeyHYT6uyvp0-A" type="github">
  <diagram name="Page-1" id="BMZv5GrpWS8H0A-lX2pP">
    <mxGraphModel>
      <root>
        <mxCell id="0" />
        <mxCell id="1" parent="0" />
      </root>
    </mxGraphModel>
  </diagram>
</mxfile>
